HIERARCHY
ROOT Hips
{
	OFFSET 0.000000 0.000000 0.000000
	CHANNELS 6 Xposition Yposition Zposition Xrotation Yrotation Zrotation
	JOINT LeftUpLeg_virtual
	{
		OFFSET 0.000000 0.000000 0.000000
		CHANNELS 3 Xrotation Yrotation Zrotation
		JOINT LeftUpLeg
		{
			OFFSET 15.427100 -6.655098 0.678600
			CHANNELS 3 Xrotation Yrotation Zrotation
			JOINT LeftLeg
			{
				OFFSET 4.081073 -39.591068 13.024000
				CHANNELS 3 Xrotation Yrotation Zrotation
				JOINT LeftFoot
				{
					OFFSET -4.081074 -37.707932 -15.979700
					CHANNELS 3 Xrotation Yrotation Zrotation
					JOINT LeftToeBase
					{
						OFFSET 5.346399 -15.068900 20.645000
						CHANNELS 3 Xrotation Yrotation Zrotation
						JOINT LeftToe_End
						{
							OFFSET 2.754700 0.931300 11.300900
							CHANNELS 3 Xrotation Yrotation Zrotation
							End Site
							{
								OFFSET 0 0 0
							}
						}
					}
				}
			}
		}
	}
	JOINT RightUpLeg_virtual
	{
		OFFSET 0.000000 0.000000 0.000000
		CHANNELS 3 Xrotation Yrotation Zrotation
		JOINT RightUpLeg
		{
			OFFSET -15.569500 -6.655098 0.678600
			CHANNELS 3 Xrotation Yrotation Zrotation
			JOINT RightLeg
			{
				OFFSET -4.081825 -39.591045 13.023800
				CHANNELS 3 Xrotation Yrotation Zrotation
				JOINT RightFoot
				{
					OFFSET 4.081824 -37.707954 -15.979600
					CHANNELS 3 Xrotation Yrotation Zrotation
					JOINT RightToeBase
					{
						OFFSET -5.346400 -15.068900 20.645000
						CHANNELS 3 Xrotation Yrotation Zrotation
						JOINT RightToe_End
						{
							OFFSET -2.754700 0.931300 11.300900
							CHANNELS 3 Xrotation Yrotation Zrotation
							End Site
							{
								OFFSET 0 0 0
							}
						}
					}
				}
			}
		}
	}
	JOINT Spine_virtual
	{
		OFFSET 0.000000 0.000000 0.000000
		CHANNELS 3 Xrotation Yrotation Zrotation
		JOINT Spine
		{
			OFFSET -0.279200 12.230698 -2.892100
			CHANNELS 3 Xrotation Yrotation Zrotation
			JOINT Spine1
			{
				OFFSET -0.232667 10.192268 -1.242267
				CHANNELS 3 Xrotation Yrotation Zrotation
				JOINT Spine1_split
				{
					OFFSET -0.232667 10.192268 -1.242267
					CHANNELS 3 Xrotation Yrotation Zrotation
					JOINT Spine2
					{
						OFFSET -0.232667 10.192268 -1.242267
						CHANNELS 3 Xrotation Yrotation Zrotation
						JOINT Neck_virtual
						{
							OFFSET 0.000000 0.000000 0.000000
							CHANNELS 3 Xrotation Yrotation Zrotation
							JOINT Neck
							{
								OFFSET -0.418800 17.814194 8.416900
								CHANNELS 3 Xrotation Yrotation Zrotation
								JOINT Head
								{
									OFFSET 0.000000 7.031097 3.806800
									CHANNELS 3 Xrotation Yrotation Zrotation
									JOINT HeadTop_End
									{
										OFFSET 0.000000 24.646606 12.978600
										CHANNELS 3 Xrotation Yrotation Zrotation
										End Site
										{
											OFFSET 0 0 0
										}
									}
								}
							}
						}
						JOINT LeftShoulder_virtual
						{
							OFFSET 0.000000 0.000000 0.000000
							CHANNELS 3 Xrotation Yrotation Zrotation
							JOINT LeftShoulder
							{
								OFFSET 8.476499 7.247704 -3.868750
								CHANNELS 3 Xrotation Yrotation Zrotation
								JOINT LeftShoulder_split
								{
									OFFSET 8.476499 7.247704 -3.868750
									CHANNELS 3 Xrotation Yrotation Zrotation
									JOINT LeftArm
									{
										OFFSET 9.308998 -2.777710 0.208600
										CHANNELS 3 Xrotation Yrotation Zrotation
										JOINT LeftForeArm
										{
											OFFSET 29.972298 0.000000 0.000000
											CHANNELS 3 Xrotation Yrotation Zrotation
											JOINT LeftHand
											{
												OFFSET 26.026505 0.000000 0.000000
												CHANNELS 3 Xrotation Yrotation Zrotation
												End Site
												{
													OFFSET 0 0 0
												}
											}
										}
									}
								}
							}
						}
						JOINT RightShoulder_virtual
						{
							OFFSET 0.000000 0.000000 0.000000
							CHANNELS 3 Xrotation Yrotation Zrotation
							JOINT RightShoulder
							{
								OFFSET -7.570500 7.247704 -3.868750
								CHANNELS 3 Xrotation Yrotation Zrotation
								JOINT RightShoulder_split
								{
									OFFSET -7.570500 7.247704 -3.868750
									CHANNELS 3 Xrotation Yrotation Zrotation
									JOINT RightArm
									{
										OFFSET -9.308998 -2.777710 0.208500
										CHANNELS 3 Xrotation Yrotation Zrotation
										JOINT RightForeArm
										{
											OFFSET -29.972300 0.000000 0.000000
											CHANNELS 3 Xrotation Yrotation Zrotation
											JOINT RightHand
											{
												OFFSET -26.026505 0.000000 0.000000
												CHANNELS 3 Xrotation Yrotation Zrotation
												End Site
												{
													OFFSET 0 0 0
												}
											}
										}
									}
								}
							}
						}
					}
				}
			}
		}
	}
}
MOTION
Frames: 6
Frame Time: 0.03333333
0.410888 80.382256 -1.263748 0.000000 0.000000 0.000000 -7.327134 -48.474699 0.093150 -18.823832 13.145175 18.307359 46.862700 2.460759 4.121165 -27.189339 -8.075763 -13.547190 -5.329949 0.279638 0.949528 0.000000 0.000000 0.000000 -9.111610 -47.281687 0.188205 -20.051760 -6.966948 -39.558468 48.886850 -5.554501 -9.218771 -20.731134 -7.592505 22.585682 -5.295824 1.086402 0.356401 0.000000 0.000000 0.000000 -7.460925 -48.839619 -0.993239 11.099477 7.842085 -2.415868 1.213080 1.521954 -0.650922 0.304087 -0.139041 1.377749 0.000000 0.000000 0.000000 0.379984 2.115480 -0.502811 2.974331 13.920170 5.962523 7.142211 19.094450 -2.720861 0.000000 0.000000 0.000000 2.860420 1.335284 -0.053910 1.165723 3.783955 -7.078327 -5.249160 -5.015454 -3.662528 -50.118880 6.279943 -47.257030 179.736046 -72.228144 -177.666717 0.000000 0.000000 0.000000 2.787781 1.823747 -0.358780 3.731025 11.082097 -5.534399 0.969404 -4.745746 -0.991344 -49.983280 20.947367 87.340928 177.072285 71.544360 -176.841917 0.000000 0.000000 0.000000 
0.726835 79.272453 0.303799 0.000000 0.000000 0.000000 -8.346882 -50.252133 -0.580514 -20.682747 12.011373 18.737162 49.825339 3.163250 3.537436 -25.458197 -7.077795 -14.171527 -6.756410 0.370091 0.543678 0.000000 0.000000 0.000000 -9.755698 -48.170302 -0.197088 -20.298110 -6.438378 -40.137463 51.193562 -4.908579 -8.970786 -22.642253 -7.810655 22.182149 -2.247489 0.975934 0.512908 0.000000 0.000000 0.000000 -7.802858 -49.472716 -1.204822 11.844171 8.035332 -2.458275 1.370190 1.374245 -0.618287 0.616695 -0.146879 1.408684 0.000000 0.000000 0.000000 0.462640 2.002715 -0.553306 2.998026 13.802065 5.907394 7.289500 19.205625 -2.656127 0.000000 0.000000 0.000000 2.800543 1.285424 0.018226 1.075843 3.496558 -7.380422 -3.128804 -6.910796 -3.270681 -52.382995 6.376203 -47.957552 176.402859 -72.315229 178.630443 0.000000 0.000000 0.000000 2.795915 1.732945 -0.383549 3.833933 11.693414 -5.539723 1.469038 -4.884299 0.002406 -51.213240 23.035173 87.552343 177.556423 72.125288 -177.119742 0.000000 0.000000 0.000000 
0.799601 77.185539 2.354980 0.000000 0.000000 0.000000 -9.260978 -52.105949 -1.299453 -24.325828 10.965175 20.050693 56.293497 3.176817 2.097495 -24.924337 -7.460002 -14.239816 -9.598689 -0.173100 2.479868 0.000000 0.000000 0.000000 -10.034873 -48.896822 -0.524862 -20.650782 -5.208563 -40.820574 53.929633 -3.700534 -9.164639 -23.879738 -8.402624 22.975573 -1.732853 0.858513 0.947359 0.000000 0.000000 0.000000 -8.426344 -50.512555 -1.590345 13.035529 8.575361 -2.227396 1.231085 1.235752 -0.765107 0.562857 -0.160347 1.095529 0.000000 0.000000 0.000000 0.126238 1.820875 -0.751684 2.587005 13.924843 5.893523 7.960136 19.310698 -2.313005 0.000000 0.000000 0.000000 2.462394 1.198027 -0.061429 0.936455 3.233836 -7.994636 -1.581747 -7.560646 -2.555803 -53.225759 6.171645 -48.405957 171.412558 -72.893814 173.259660 0.000000 0.000000 0.000000 2.348650 1.555265 -0.547375 3.853540 12.397405 -5.349583 1.419036 -4.186499 0.489116 -52.190053 23.909668 86.851552 178.291078 73.089608 -178.159774 0.000000 0.000000 0.000000 
0.874328 74.546898 4.570156 0.000000 0.000000 0.000000 -9.915981 -53.788774 -1.859713 -29.838173 9.297625 22.349902 65.448164 1.389804 0.647057 -24.520505 -9.260072 -15.510024 -11.006992 -1.015377 5.037833 0.000000 0.000000 0.000000 -9.916915 -49.668193 -0.614634 -21.177872 -3.679050 -41.688667 56.554181 -2.136371 -9.662466 -24.233941 -9.028861 24.521781 -3.697836 0.704934 1.528211 0.000000 0.000000 0.000000 -9.130155 -52.061638 -2.014318 14.476101 9.325743 -1.766105 0.875986 1.200868 -1.070508 0.390230 0.300965 0.710331 0.000000 0.000000 0.000000 -0.560458 1.693119 -1.027722 1.659651 14.264224 5.912490 8.813747 19.678315 -1.927648 0.000000 0.000000 0.000000 1.865053 1.135778 -0.254322 0.806808 3.268422 -8.664083 -0.403941 -6.762184 -1.534947 -51.913174 6.937255 -47.865624 167.284843 -72.829009 168.858655 0.000000 0.000000 0.000000 1.492864 1.378452 -0.832400 3.762248 13.045128 -5.154551 1.308028 -2.850893 0.570197 -52.892684 23.388822 85.504666 179.910557 74.070669 179.457961 0.000000 0.000000 0.000000 
1.300032 71.783440 6.746258 0.000000 0.000000 0.000000 -10.297995 -55.499252 -2.099376 -36.403412 6.624262 25.245110 74.622801 -1.730772 -0.205350 -23.205045 -12.199502 -18.086524 -11.329104 -1.870678 7.219063 0.000000 0.000000 0.000000 -9.738153 -50.593199 -0.460596 -22.264684 -2.011444 -43.164661 58.569883 -0.508681 -10.100649 -24.069378 -9.292091 25.800724 -5.014241 0.630501 2.022398 0.000000 0.000000 0.000000 -9.586944 -53.844891 -2.184871 15.986579 9.981913 -1.186253 0.358430 1.282097 -1.484666 0.335260 0.698279 0.380967 0.000000 0.000000 0.000000 -1.377157 1.685394 -1.315964 0.420847 14.869296 5.882011 9.438541 20.611960 -1.785871 0.000000 0.000000 0.000000 1.091526 1.148997 -0.515400 0.701575 3.696468 -9.235764 0.349194 -5.054658 0.168774 -48.480509 9.656201 -46.038210 167.506319 -70.742072 168.938923 0.000000 0.000000 0.000000 0.385785 1.242796 -1.200573 3.519609 13.435678 -5.260779 1.288965 -1.779286 0.549514 -53.556504 22.572990 84.332885 -177.566272 74.970082 175.886578 0.000000 0.000000 0.000000 
2.060222 69.547409 9.259041 0.000000 0.000000 0.000000 -10.301919 -57.119031 -1.870200 -42.387529 3.040609 28.327863 81.421196 -5.210477 -0.038461 -20.212048 -15.299330 -21.630868 -12.690412 -2.650792 8.598581 0.000000 0.000000 0.000000 -9.374744 -51.997212 0.048151 -24.363703 -0.435591 -45.783752 59.680315 1.110194 -10.108362 -23.627388 -8.870496 26.389151 -4.240928 0.768924 2.160745 0.000000 0.000000 0.000000 -9.445360 -55.586368 -1.878035 17.279598 10.267388 -0.597048 -0.219140 1.456497 -1.870943 0.208482 0.677247 0.322844 0.000000 0.000000 0.000000 -2.078112 1.791260 -1.528438 -0.821968 15.715080 5.629549 9.652889 22.379279 -2.181725 0.000000 0.000000 0.000000 0.294522 1.253664 -0.761866 0.639116 4.534863 -9.578884 0.785894 -3.339664 2.172796 -44.808032 13.914931 -43.457386 171.615757 -66.307483 172.946646 0.000000 0.000000 0.000000 -0.721858 1.196097 -1.557896 3.211685 13.388478 -5.915160 1.463368 -1.336501 0.677727 -54.343717 23.131457 84.505921 -174.310403 76.023598 171.665043 0.000000 0.000000 0.000000 
